<svg width="20" height="20" viewBox="0 0 20 20" fill="none" xmlns="http://www.w3.org/2000/svg">
<path d="M18.5714 11.4286H11.4286V18.5714C11.4286 19.3571 10.7857 20 10 20C9.21429 20 8.57143 19.3571 8.57143 18.5714V11.4286H1.42857C0.642857 11.4286 0 10.7857 0 10C0 9.21429 0.642857 8.57143 1.42857 8.57143H8.57143V1.42857C8.57143 0.642857 9.21429 0 10 0C10.7857 0 11.4286 0.642857 11.4286 1.42857V8.57143H18.5714C19.3571 8.57143 20 9.21429 20 10C20 10.7857 19.3571 11.4286 18.5714 11.4286Z" fill="white"/>
</svg>
