<svg width="24" height="25" viewBox="0 0 24 25" fill="none" xmlns="http://www.w3.org/2000/svg">
<path d="M19.4234 17.5681L19.2534 17.4181C18.7712 16.9884 18.349 16.4957 17.9984 15.9531C17.6155 15.2044 17.3861 14.3867 17.3234 13.5481V11.0781C17.3267 9.76093 16.8489 8.48786 15.9798 7.49811C15.1107 6.50836 13.91 5.87006 12.6034 5.70312V5.05812C12.6034 4.88109 12.5331 4.71131 12.4079 4.58613C12.2828 4.46095 12.113 4.39062 11.9359 4.39062C11.7589 4.39062 11.5891 4.46095 11.4639 4.58613C11.3388 4.71131 11.2684 4.88109 11.2684 5.05812V5.71312C9.97357 5.89209 8.78742 6.53425 7.9297 7.52068C7.07198 8.5071 6.6008 9.77095 6.60344 11.0781V13.5481C6.54081 14.3867 6.31133 15.2044 5.92844 15.9531C5.58388 16.4943 5.16853 16.987 4.69344 17.4181L4.52344 17.5681V18.9781H19.4234V17.5681Z" fill="white"/>
<path d="M10.6602 19.5C10.704 19.8169 10.8611 20.1073 11.1023 20.3175C11.3435 20.5276 11.6527 20.6434 11.9727 20.6434C12.2926 20.6434 12.6018 20.5276 12.843 20.3175C13.0843 20.1073 13.2413 19.8169 13.2852 19.5H10.6602Z" fill="white"/>
</svg>
