<svg width="11" height="19" viewBox="0 0 11 19" fill="none" xmlns="http://www.w3.org/2000/svg">
<path d="M5.8 8.4C3.53 7.81 2.8 7.2 2.8 6.25C2.8 5.16 3.81 4.4 5.5 4.4C6.92 4.4 7.63 4.94 7.89 5.8C8.01 6.2 8.34 6.5 8.76 6.5H9.06C9.72 6.5 10.19 5.85 9.96 5.23C9.54 4.05 8.56 3.07 7 2.69V2C7 1.17 6.33 0.5 5.5 0.5C4.67 0.5 4 1.17 4 2V2.66C2.06 3.08 0.5 4.34 0.5 6.27C0.5 8.58 2.41 9.73 5.2 10.4C7.7 11 8.2 11.88 8.2 12.81C8.2 13.5 7.71 14.6 5.5 14.6C3.85 14.6 3 14.01 2.67 13.17C2.52 12.78 2.18 12.5 1.77 12.5H1.49C0.82 12.5 0.35 13.18 0.6 13.8C1.17 15.19 2.5 16.01 4 16.33V17C4 17.83 4.67 18.5 5.5 18.5C6.33 18.5 7 17.83 7 17V16.35C8.95 15.98 10.5 14.85 10.5 12.8C10.5 9.96 8.07 8.99 5.8 8.4Z" fill="white"/>
</svg>
