<svg width="24" height="21" viewBox="0 0 24 21" fill="none" xmlns="http://www.w3.org/2000/svg">
<path d="M2.18182 10.3182C0.981818 10.3182 0 9.33636 0 8.13636V2.68182C0 1.48182 0.981818 0.5 2.18182 0.5H10.9091C12.1091 0.5 13.0909 1.48182 13.0909 2.68182V8.13636C13.0909 9.33636 12.1091 10.3182 10.9091 10.3182H8.72727V13.5909L5.45455 10.3182H2.18182ZM21.8182 16.8636C23.0182 16.8636 24 15.8818 24 14.6818V9.22727C24 8.02727 23.0182 7.04545 21.8182 7.04545H15.2727V8.13636C15.2727 10.5364 13.3091 12.5 10.9091 12.5V14.6818C10.9091 15.8818 11.8909 16.8636 13.0909 16.8636H15.2727V20.1364L18.5455 16.8636H21.8182Z" fill="white"/>
</svg>
