<svg width="20" height="20" viewBox="0 0 20 20" fill="none" xmlns="http://www.w3.org/2000/svg">
<path fill-rule="evenodd" clip-rule="evenodd" d="M12.208 2.83C12.6613 2.97 13.0947 3.15 13.508 3.37L15.341 2.27C15.5321 2.15536 15.7561 2.10786 15.9773 2.13504C16.1985 2.16221 16.4043 2.26251 16.562 2.42L17.58 3.438C17.7375 3.5957 17.8378 3.80149 17.865 4.02271C17.8921 4.24392 17.8446 4.46787 17.73 4.659L16.63 6.492C16.85 6.90533 17.03 7.33867 17.17 7.792L19.243 8.311C19.4592 8.36517 19.6512 8.49005 19.7883 8.66579C19.9255 8.84154 20 9.05807 20 9.281V10.719C20 10.9419 19.9255 11.1585 19.7883 11.3342C19.6512 11.51 19.4592 11.6348 19.243 11.689L17.17 12.208C17.03 12.6613 16.85 13.0947 16.63 13.508L17.73 15.341C17.8446 15.5321 17.8921 15.7561 17.865 15.9773C17.8378 16.1985 17.7375 16.4043 17.58 16.562L16.562 17.58C16.4043 17.7375 16.1985 17.8378 15.9773 17.865C15.7561 17.8921 15.5321 17.8446 15.341 17.73L13.508 16.63C13.0947 16.85 12.6613 17.03 12.208 17.17L11.689 19.243C11.6348 19.4592 11.51 19.6512 11.3342 19.7883C11.1585 19.9255 10.9419 20 10.719 20H9.281C9.05807 20 8.84154 19.9255 8.66579 19.7883C8.49005 19.6512 8.36517 19.4592 8.311 19.243L7.792 17.17C7.3427 17.0312 6.90744 16.8504 6.492 16.63L4.659 17.73C4.46787 17.8446 4.24392 17.8921 4.02271 17.865C3.80149 17.8378 3.5957 17.7375 3.438 17.58L2.42 16.562C2.26251 16.4043 2.16221 16.1985 2.13504 15.9773C2.10786 15.7561 2.15536 15.5321 2.27 15.341L3.37 13.508C3.14964 13.0926 2.96885 12.6573 2.83 12.208L0.757 11.689C0.540919 11.6349 0.349098 11.5101 0.211963 11.3346C0.074827 11.1591 0.000228643 10.9428 0 10.72V9.282C5.86043e-06 9.05907 0.0745022 8.84254 0.211655 8.66679C0.348809 8.49105 0.540753 8.36617 0.757 8.312L2.83 7.793C2.97 7.33967 3.15 6.90633 3.37 6.493L2.27 4.66C2.15536 4.46887 2.10786 4.24492 2.13504 4.02371C2.16221 3.80249 2.26251 3.5967 2.42 3.439L3.438 2.42C3.5957 2.26251 3.80149 2.16221 4.02271 2.13504C4.24392 2.10786 4.46787 2.15536 4.659 2.27L6.492 3.37C6.90533 3.15 7.33867 2.97 7.792 2.83L8.311 0.757C8.36513 0.540919 8.48986 0.349098 8.6654 0.211963C8.84094 0.074827 9.05724 0.000228643 9.28 0H10.718C10.9409 5.86043e-06 11.1575 0.0745022 11.3332 0.211655C11.509 0.348809 11.6338 0.540753 11.688 0.757L12.208 2.83ZM10 14C11.0609 14 12.0783 13.5786 12.8284 12.8284C13.5786 12.0783 14 11.0609 14 10C14 8.93913 13.5786 7.92172 12.8284 7.17157C12.0783 6.42143 11.0609 6 10 6C8.93913 6 7.92172 6.42143 7.17157 7.17157C6.42143 7.92172 6 8.93913 6 10C6 11.0609 6.42143 12.0783 7.17157 12.8284C7.92172 13.5786 8.93913 14 10 14Z" fill="white"/>
</svg>
