<svg width="32" height="32" viewBox="0 0 32 32" fill="none" xmlns="http://www.w3.org/2000/svg">
<mask id="mask0_1529_4665" style="mask-type:alpha" maskUnits="userSpaceOnUse" x="0" y="0" width="32" height="32">
<rect width="32" height="32" fill="#D9D9D9"/>
</mask>
<g mask="url(#mask0_1529_4665)">
<path d="M9.33203 28C8.5987 28 7.97092 27.7389 7.4487 27.2167C6.92648 26.6944 6.66536 26.0667 6.66536 25.3333V8C6.28759 8 5.97092 7.87222 5.71536 7.61667C5.45981 7.36111 5.33203 7.04444 5.33203 6.66667C5.33203 6.28889 5.45981 5.97222 5.71536 5.71667C5.97092 5.46111 6.28759 5.33333 6.66536 5.33333H11.9987C11.9987 4.95556 12.1265 4.63889 12.382 4.38333C12.6376 4.12778 12.9543 4 13.332 4H18.6654C19.0431 4 19.3598 4.12778 19.6154 4.38333C19.8709 4.63889 19.9987 4.95556 19.9987 5.33333H25.332C25.7098 5.33333 26.0265 5.46111 26.282 5.71667C26.5376 5.97222 26.6654 6.28889 26.6654 6.66667C26.6654 7.04444 26.5376 7.36111 26.282 7.61667C26.0265 7.87222 25.7098 8 25.332 8V25.3333C25.332 26.0667 25.0709 26.6944 24.5487 27.2167C24.0265 27.7389 23.3987 28 22.6654 28H9.33203ZM13.332 22.6667C13.7098 22.6667 14.0265 22.5389 14.282 22.2833C14.5376 22.0278 14.6654 21.7111 14.6654 21.3333V12C14.6654 11.6222 14.5376 11.3056 14.282 11.05C14.0265 10.7944 13.7098 10.6667 13.332 10.6667C12.9543 10.6667 12.6376 10.7944 12.382 11.05C12.1265 11.3056 11.9987 11.6222 11.9987 12V21.3333C11.9987 21.7111 12.1265 22.0278 12.382 22.2833C12.6376 22.5389 12.9543 22.6667 13.332 22.6667ZM18.6654 22.6667C19.0431 22.6667 19.3598 22.5389 19.6154 22.2833C19.8709 22.0278 19.9987 21.7111 19.9987 21.3333V12C19.9987 11.6222 19.8709 11.3056 19.6154 11.05C19.3598 10.7944 19.0431 10.6667 18.6654 10.6667C18.2876 10.6667 17.9709 10.7944 17.7154 11.05C17.4598 11.3056 17.332 11.6222 17.332 12V21.3333C17.332 21.7111 17.4598 22.0278 17.7154 22.2833C17.9709 22.5389 18.2876 22.6667 18.6654 22.6667Z" fill="white"/>
</g>
</svg>
