<svg width="32" height="32" viewBox="0 0 32 32" fill="none" xmlns="http://www.w3.org/2000/svg">
<path d="M4 23.0033V28.0033H9L23.7467 13.2566L18.7467 8.25659L4 23.0033ZM27.6133 9.38993C27.7369 9.26657 27.835 9.12006 27.9019 8.95876C27.9688 8.79746 28.0033 8.62455 28.0033 8.44993C28.0033 8.2753 27.9688 8.10239 27.9019 7.94109C27.835 7.7798 27.7369 7.63328 27.6133 7.50993L24.4933 4.38993C24.37 4.26632 24.2235 4.16826 24.0622 4.10135C23.9009 4.03444 23.728 4 23.5533 4C23.3787 4 23.2058 4.03444 23.0445 4.10135C22.8832 4.16826 22.7367 4.26632 22.6133 4.38993L20.1733 6.82993L25.1733 11.8299L27.6133 9.38993Z" fill="white"/>
</svg>
