<svg width="32" height="32" viewBox="0 0 32 32" fill="none" xmlns="http://www.w3.org/2000/svg">
<path d="M15.8 13.6C15.1635 13.6 14.553 13.8529 14.1029 14.3029C13.6529 14.753 13.4 15.3635 13.4 16C13.4 16.6365 13.6529 17.247 14.1029 17.6971C14.553 18.1471 15.1635 18.4 15.8 18.4C16.4365 18.4 17.047 18.1471 17.4971 17.6971C17.9471 17.247 18.2 16.6365 18.2 16C18.2 15.3635 17.9471 14.753 17.4971 14.3029C17.047 13.8529 16.4365 13.6 15.8 13.6ZM15.8 20C14.7391 20 13.7217 19.5786 12.9716 18.8284C12.2214 18.0783 11.8 17.0609 11.8 16C11.8 14.9391 12.2214 13.9217 12.9716 13.1716C13.7217 12.4214 14.7391 12 15.8 12C16.8609 12 17.8783 12.4214 18.6284 13.1716C19.3786 13.9217 19.8 14.9391 19.8 16C19.8 17.0609 19.3786 18.0783 18.6284 18.8284C17.8783 19.5786 16.8609 20 15.8 20ZM15.8 10C11.8 10 8.384 12.488 7 16C8.384 19.512 11.8 22 15.8 22C19.8 22 23.216 19.512 24.6 16C23.216 12.488 19.8 10 15.8 10Z" fill="white"/>
</svg>
