<svg width="18" height="18" viewBox="0 0 18 18" fill="none" xmlns="http://www.w3.org/2000/svg">
<path d="M8.85 7.2C8.37261 7.2 7.91477 7.38964 7.57721 7.72721C7.23964 8.06477 7.05 8.52261 7.05 9C7.05 9.47739 7.23964 9.93523 7.57721 10.2728C7.91477 10.6104 8.37261 10.8 8.85 10.8C9.32739 10.8 9.78523 10.6104 10.1228 10.2728C10.4604 9.93523 10.65 9.47739 10.65 9C10.65 8.52261 10.4604 8.06477 10.1228 7.72721C9.78523 7.38964 9.32739 7.2 8.85 7.2ZM8.85 12C8.05435 12 7.29129 11.6839 6.72868 11.1213C6.16607 10.5587 5.85 9.79565 5.85 9C5.85 8.20435 6.16607 7.44129 6.72868 6.87868C7.29129 6.31607 8.05435 6 8.85 6C9.64565 6 10.4087 6.31607 10.9713 6.87868C11.5339 7.44129 11.85 8.20435 11.85 9C11.85 9.79565 11.5339 10.5587 10.9713 11.1213C10.4087 11.6839 9.64565 12 8.85 12ZM8.85 4.5C5.85 4.5 3.288 6.366 2.25 9C3.288 11.634 5.85 13.5 8.85 13.5C11.85 13.5 14.412 11.634 15.45 9C14.412 6.366 11.85 4.5 8.85 4.5Z" fill="white"/>
</svg>
