<svg width="17" height="16" viewBox="0 0 17 16" fill="none" xmlns="http://www.w3.org/2000/svg">
<path d="M7.97762 16C7.69429 16 7.45679 15.9042 7.26512 15.7125C7.07345 15.5208 6.97762 15.2833 6.97762 15V9L1.17762 1.6C0.927619 1.26667 0.890119 0.916667 1.06512 0.55C1.24012 0.183333 1.54429 0 1.97762 0H15.9776C16.411 0 16.7151 0.183333 16.8901 0.55C17.0651 0.916667 17.0276 1.26667 16.7776 1.6L10.9776 9V15C10.9776 15.2833 10.8818 15.5208 10.6901 15.7125C10.4985 15.9042 10.261 16 9.97762 16H7.97762Z" fill="white"/>
</svg>
