<svg width="20" height="20" viewBox="0 0 20 20" fill="none" xmlns="http://www.w3.org/2000/svg">
<path d="M18.7511 10.1951C18.7511 9.47569 18.6915 8.95069 18.5626 8.40625H10.1797V11.6534H15.1003C15.0011 12.4604 14.4654 13.6757 13.2749 14.4923L13.2582 14.601L15.9087 16.6133L16.0924 16.6312C17.7788 15.1048 18.7511 12.859 18.7511 10.1951Z" fill="#4285F4"/>
<path d="M10.1793 18.7539C12.59 18.7539 14.6138 17.9761 16.092 16.6344L13.2745 14.4955C12.5206 15.0108 11.5086 15.3705 10.1793 15.3705C7.81822 15.3705 5.81427 13.8441 5.09992 11.7344L4.99522 11.7431L2.23917 13.8334L2.20312 13.9316C3.67136 16.7899 6.68723 18.7539 10.1793 18.7539Z" fill="#34A853"/>
<path d="M5.09916 11.7322C4.91068 11.1877 4.80159 10.6044 4.80159 10.0016C4.80159 9.39881 4.91068 8.8155 5.08925 8.27106L5.08425 8.15511L2.29366 6.03125L2.20236 6.07381C1.59723 7.25994 1.25 8.59191 1.25 10.0016C1.25 11.4113 1.59723 12.7432 2.20236 13.9294L5.09916 11.7322Z" fill="#FBBC05"/>
<path d="M10.1794 4.63331C11.8559 4.63331 12.9868 5.34303 13.6317 5.93613L16.1516 3.525C14.604 2.11528 12.59 1.25 10.1794 1.25C6.68725 1.25 3.67137 3.21387 2.20312 6.07218L5.09002 8.26944C5.8143 6.15972 7.81825 4.63331 10.1794 4.63331Z" fill="#EB4335"/>
</svg>
