<svg width="18" height="19" viewBox="0 0 18 19" fill="none" xmlns="http://www.w3.org/2000/svg">
<path d="M2.28881 7.48814C2.25693 7.39293 2.24449 7.29229 2.25223 7.19218C2.25997 7.09208 2.28773 6.99455 2.33387 6.90537C2.38001 6.81619 2.44358 6.73719 2.52082 6.67304C2.59806 6.60889 2.68739 6.5609 2.78353 6.53192C2.87966 6.50294 2.98063 6.49356 3.08045 6.50433C3.18028 6.5151 3.27693 6.5458 3.36466 6.59462C3.4524 6.64344 3.52944 6.70938 3.59122 6.78853C3.653 6.86768 3.69826 6.95842 3.72431 7.05539C5.28881 12.2949 12.7108 12.2956 14.2768 7.05839C14.3049 6.96394 14.3513 6.87594 14.4134 6.79942C14.4754 6.72289 14.552 6.65935 14.6386 6.61241C14.7253 6.56547 14.8203 6.53605 14.9183 6.52584C15.0163 6.51563 15.1154 6.52482 15.2098 6.55289C15.3043 6.58096 15.3923 6.62736 15.4688 6.68944C15.5453 6.75152 15.6089 6.82806 15.6558 6.9147C15.7027 7.00134 15.7321 7.09637 15.7424 7.19437C15.7526 7.29238 15.7434 7.39144 15.7153 7.48589C15.4426 8.42435 14.9798 9.29668 14.3556 10.0486L15.3118 11.0056C15.4484 11.1471 15.524 11.3365 15.5223 11.5332C15.5206 11.7298 15.4417 11.9179 15.3027 12.057C15.1636 12.1961 14.9755 12.2749 14.7789 12.2766C14.5822 12.2784 14.3928 12.2028 14.2513 12.0661L13.2681 11.0829C12.7375 11.4832 12.1513 11.8038 11.5281 12.0346L11.7958 13.0359C11.8244 13.1319 11.8334 13.2327 11.8224 13.3323C11.8113 13.4319 11.7805 13.5283 11.7316 13.6157C11.6827 13.7032 11.6167 13.7799 11.5377 13.8415C11.4586 13.903 11.368 13.9481 11.2713 13.9741C11.1745 14 11.0735 14.0064 10.9742 13.9926C10.875 13.9789 10.7795 13.9454 10.6934 13.8942C10.6073 13.843 10.5323 13.775 10.4729 13.6943C10.4135 13.6136 10.3709 13.5218 10.3476 13.4244L10.0746 12.4066C9.36431 12.5116 8.63831 12.5116 7.92806 12.4066L7.65506 13.4244C7.63172 13.5218 7.5891 13.6136 7.5297 13.6943C7.47031 13.775 7.39534 13.843 7.30924 13.8942C7.22314 13.9454 7.12764 13.9789 7.02839 13.9926C6.92914 14.0064 6.82814 14 6.73137 13.9741C6.6346 13.9481 6.544 13.903 6.46495 13.8415C6.38589 13.7799 6.31996 13.7032 6.27106 13.6157C6.22217 13.5283 6.19129 13.4319 6.18025 13.3323C6.16922 13.2327 6.17825 13.1319 6.20681 13.0359L6.47456 12.0346C5.85127 11.8036 5.26508 11.4827 4.73456 11.0821L3.75206 12.0661C3.61143 12.207 3.42061 12.2862 3.22159 12.2863C3.02257 12.2864 2.83164 12.2075 2.69081 12.0669C2.54998 11.9263 2.47079 11.7354 2.47064 11.5364C2.4705 11.3374 2.54943 11.1465 2.69006 11.0056L3.64631 10.0494C3.05831 9.34739 2.58881 8.49389 2.28731 7.48889L2.28881 7.48814Z" fill="white"/>
</svg>
