<svg width="22" height="20" viewBox="0 0 22 20" fill="none" xmlns="http://www.w3.org/2000/svg">
<path d="M2.53131 0.46967C2.23841 0.176777 1.76354 0.176777 1.47065 0.46967C1.17775 0.762563 1.17775 1.23744 1.47065 1.53033L19.4706 19.5303C19.7635 19.8232 20.2384 19.8232 20.5313 19.5303C20.8242 19.2374 20.8242 18.7626 20.5313 18.4697L2.53131 0.46967Z" fill="#7C798A"/>
<path d="M21.6769 10.5533C21.1328 12.1887 20.2236 13.6575 19.0457 14.8627L15.9472 11.7642C16.1439 11.2129 16.251 10.6189 16.251 10C16.251 7.1005 13.9005 4.75 11.001 4.75C10.382 4.75 9.78813 4.8571 9.23675 5.05379L6.75995 2.577C8.06881 2.04381 9.50075 1.75 11.0015 1.75C15.9718 1.75 20.1874 4.97271 21.6765 9.44045C21.7969 9.80152 21.797 10.1922 21.6769 10.5533Z" fill="#7C798A"/>
<path d="M14.751 10C14.751 10.1802 14.7383 10.3574 14.7137 10.5308L10.4702 6.28727C10.6436 6.2627 10.8208 6.25 11.001 6.25C13.072 6.25 14.751 7.92893 14.751 10Z" fill="#7C798A"/>
<path d="M11.5317 13.7127L7.28825 9.46925C7.26368 9.64263 7.25098 9.81983 7.25098 10C7.25098 12.0711 8.92991 13.75 11.001 13.75C11.1811 13.75 11.3583 13.7373 11.5317 13.7127Z" fill="#7C798A"/>
<path d="M5.75098 10C5.75098 9.38107 5.85808 8.78715 6.05476 8.23577L2.9559 5.1369C1.77784 6.34222 0.868449 7.81114 0.324388 9.4467C0.204259 9.80783 0.204374 10.1985 0.324715 10.5595C1.81381 15.0273 6.02945 18.25 10.9997 18.25C12.5007 18.25 13.9328 17.9561 15.2418 17.4228L12.7652 14.9462C12.2138 15.1429 11.6199 15.25 11.001 15.25C8.10148 15.25 5.75098 12.8995 5.75098 10Z" fill="#7C798A"/>
</svg>
