<svg width="24" height="24" viewBox="0 0 24 24" fill="none" xmlns="http://www.w3.org/2000/svg">
<path d="M3.53131 2.46967C3.23841 2.17678 2.76354 2.17678 2.47065 2.46967C2.17775 2.76256 2.17775 3.23744 2.47065 3.53033L20.4706 21.5303C20.7635 21.8232 21.2384 21.8232 21.5313 21.5303C21.8242 21.2374 21.8242 20.7626 21.5313 20.4697L3.53131 2.46967Z" fill="#5D3CBA"/>
<path d="M22.6769 12.5533C22.1328 14.1887 21.2236 15.6575 20.0457 16.8627L16.9472 13.7642C17.1439 13.2129 17.251 12.6189 17.251 12C17.251 9.1005 14.9005 6.75 12.001 6.75C11.382 6.75 10.7881 6.8571 10.2367 7.05379L7.75995 4.577C9.06881 4.04381 10.5008 3.75 12.0015 3.75C16.9718 3.75 21.1874 6.97271 22.6765 11.4405C22.7969 11.8015 22.797 12.1922 22.6769 12.5533Z" fill="#5D3CBA"/>
<path d="M15.751 12C15.751 12.1802 15.7383 12.3574 15.7137 12.5308L11.4702 8.28727C11.6436 8.2627 11.8208 8.25 12.001 8.25C14.072 8.25 15.751 9.92893 15.751 12Z" fill="#5D3CBA"/>
<path d="M12.5317 15.7127L8.28825 11.4692C8.26368 11.6426 8.25098 11.8198 8.25098 12C8.25098 14.0711 9.92991 15.75 12.001 15.75C12.1811 15.75 12.3583 15.7373 12.5317 15.7127Z" fill="#5D3CBA"/>
<path d="M6.75098 12C6.75098 11.3811 6.85808 10.7871 7.05476 10.2358L3.9559 7.1369C2.77784 8.34222 1.86845 9.81114 1.32439 11.4467C1.20426 11.8078 1.20437 12.1985 1.32472 12.5595C2.81381 17.0273 7.02945 20.25 11.9997 20.25C13.5007 20.25 14.9328 19.9561 16.2418 19.4228L13.7652 16.9462C13.2138 17.1429 12.6199 17.25 12.001 17.25C9.10148 17.25 6.75098 14.8995 6.75098 12Z" fill="#5D3CBA"/>
</svg>
