<svg width="16" height="21" viewBox="0 0 16 21" fill="none" xmlns="http://www.w3.org/2000/svg">
<path d="M3 0.5H13C13.7956 0.5 14.5587 0.81607 15.1213 1.37868C15.6839 1.94129 16 2.70435 16 3.5V17.5C16 18.2956 15.6839 19.0587 15.1213 19.6213C14.5587 20.1839 13.7956 20.5 13 20.5H3C2.20435 20.5 1.44129 20.1839 0.87868 19.6213C0.31607 19.0587 0 18.2956 0 17.5L0 3.5C0 2.70435 0.31607 1.94129 0.87868 1.37868C1.44129 0.81607 2.20435 0.5 3 0.5ZM4 7.5C3.73478 7.5 3.48043 7.60536 3.29289 7.79289C3.10536 7.98043 3 8.23478 3 8.5C3 8.76522 3.10536 9.01957 3.29289 9.20711C3.48043 9.39464 3.73478 9.5 4 9.5H12C12.2652 9.5 12.5196 9.39464 12.7071 9.20711C12.8946 9.01957 13 8.76522 13 8.5C13 8.23478 12.8946 7.98043 12.7071 7.79289C12.5196 7.60536 12.2652 7.5 12 7.5H4ZM4 15.5C3.73478 15.5 3.48043 15.6054 3.29289 15.7929C3.10536 15.9804 3 16.2348 3 16.5C3 16.7652 3.10536 17.0196 3.29289 17.2071C3.48043 17.3946 3.73478 17.5 4 17.5H9C9.26522 17.5 9.51957 17.3946 9.70711 17.2071C9.89464 17.0196 10 16.7652 10 16.5C10 16.2348 9.89464 15.9804 9.70711 15.7929C9.51957 15.6054 9.26522 15.5 9 15.5H4ZM4 3.5C3.73478 3.5 3.48043 3.60536 3.29289 3.79289C3.10536 3.98043 3 4.23478 3 4.5C3 4.76522 3.10536 5.01957 3.29289 5.20711C3.48043 5.39464 3.73478 5.5 4 5.5H12C12.2652 5.5 12.5196 5.39464 12.7071 5.20711C12.8946 5.01957 13 4.76522 13 4.5C13 4.23478 12.8946 3.98043 12.7071 3.79289C12.5196 3.60536 12.2652 3.5 12 3.5H4ZM4 11.5C3.73478 11.5 3.48043 11.6054 3.29289 11.7929C3.10536 11.9804 3 12.2348 3 12.5C3 12.7652 3.10536 13.0196 3.29289 13.2071C3.48043 13.3946 3.73478 13.5 4 13.5H12C12.2652 13.5 12.5196 13.3946 12.7071 13.2071C12.8946 13.0196 13 12.7652 13 12.5C13 12.2348 12.8946 11.9804 12.7071 11.7929C12.5196 11.6054 12.2652 11.5 12 11.5H4Z" fill="white"/>
</svg>
