<svg width="18" height="18" viewBox="0 0 18 18" fill="none" xmlns="http://www.w3.org/2000/svg">
<path fill-rule="evenodd" clip-rule="evenodd" d="M14.1262 3.04996C13.4985 2.42233 12.4809 2.42233 11.8533 3.04996L4.03956 10.8638C2.99351 11.9098 2.99351 13.6058 4.03956 14.6518C5.08561 15.6979 6.78158 15.6979 7.82763 14.6518L13.3226 9.15685C13.5318 8.94764 13.871 8.94764 14.0802 9.15685C14.2895 9.36606 14.2895 9.70525 14.0802 9.91446L8.58524 15.4095C7.12078 16.8739 4.74641 16.8739 3.28194 15.4095C1.81748 13.945 1.81748 11.5706 3.28194 10.1062L11.0957 2.29235C12.1417 1.2463 13.8377 1.2463 14.8838 2.29235C15.9298 3.33839 15.9298 5.03437 14.8838 6.08042L7.07456 13.8896C7.07254 13.8917 7.0705 13.8938 7.06844 13.8958L7.06353 13.9007L7.06196 13.9022L7.06036 13.9038C6.43191 14.5218 5.42159 14.5186 4.79717 13.8942C4.16955 13.2666 4.16954 12.249 4.79717 11.6214L10.3761 6.04233C10.5853 5.83312 10.9245 5.83311 11.1337 6.04232C11.3429 6.25153 11.3429 6.59072 11.1337 6.79994L5.55479 12.379C5.34558 12.5882 5.34558 12.9274 5.55479 13.1366C5.76246 13.3443 6.09828 13.3458 6.30776 13.1412L14.1262 5.3228C14.7538 4.69518 14.7538 3.67759 14.1262 3.04996Z" fill="#7C798A"/>
</svg>
