<svg width="14" height="14" viewBox="0 0 14 14" fill="none" xmlns="http://www.w3.org/2000/svg">
<path fill-rule="evenodd" clip-rule="evenodd" d="M5.99431 0.328125C5.0907 0.328202 4.20022 0.544368 3.39715 0.958588C2.59408 1.37281 1.9017 1.97307 1.3778 2.70929C0.853896 3.44552 0.51365 4.29636 0.385448 5.19082C0.257247 6.08528 0.344809 6.99744 0.640828 7.85118C0.936848 8.70492 1.43274 9.47549 2.08713 10.0986C2.74153 10.7217 3.53545 11.1793 4.40265 11.4332C5.26986 11.6871 6.1852 11.7299 7.07232 11.5581C7.95944 11.3862 8.79261 11.0048 9.50231 10.4455L11.937 12.8801C12.0627 13.0016 12.2311 13.0688 12.4059 13.0672C12.5807 13.0657 12.7479 12.9956 12.8715 12.872C12.9951 12.7484 13.0652 12.5812 13.0668 12.4064C13.0683 12.2316 13.0011 12.0632 12.8796 11.9375L10.445 9.50279C11.1036 8.6672 11.5138 7.66306 11.6284 6.60528C11.743 5.54749 11.5575 4.47881 11.0931 3.52152C10.6287 2.56424 9.90423 1.75703 9.00251 1.19228C8.10079 0.627529 7.05829 0.328054 5.99431 0.328125ZM1.66098 5.99479C1.66098 4.84552 2.11752 3.74332 2.93018 2.93066C3.74284 2.118 4.84504 1.66146 5.99431 1.66146C7.14358 1.66146 8.24578 2.118 9.05844 2.93066C9.8711 3.74332 10.3276 4.84552 10.3276 5.99479C10.3276 7.14406 9.8711 8.24626 9.05844 9.05892C8.24578 9.87158 7.14358 10.3281 5.99431 10.3281C4.84504 10.3281 3.74284 9.87158 2.93018 9.05892C2.11752 8.24626 1.66098 7.14406 1.66098 5.99479Z" fill="#7C798A"/>
</svg>
