<svg width="14" height="15" viewBox="0 0 14 15" fill="none" xmlns="http://www.w3.org/2000/svg">
<path fill-rule="evenodd" clip-rule="evenodd" d="M5.99822 0.335938C5.09461 0.336014 4.20413 0.55218 3.40105 0.9664C2.59798 1.38062 1.90561 1.98088 1.38171 2.71711C0.857802 3.45333 0.517556 4.30417 0.389355 5.19863C0.261154 6.0931 0.348715 7.00525 0.644735 7.85899C0.940754 8.71273 1.43665 9.48331 2.09104 10.1064C2.74543 10.7295 3.53935 11.1871 4.40656 11.441C5.27376 11.6949 6.18911 11.7377 7.07623 11.5659C7.96335 11.3941 8.79651 11.0126 9.50622 10.4533L11.9409 12.8879C12.0666 13.0094 12.235 13.0766 12.4098 13.0751C12.5846 13.0735 12.7518 13.0034 12.8754 12.8798C12.999 12.7562 13.0691 12.589 13.0707 12.4142C13.0722 12.2394 13.005 12.071 12.8835 11.9453L10.4489 9.5106C11.1075 8.67502 11.5177 7.67087 11.6323 6.61309C11.7469 5.5553 11.5614 4.48662 11.097 3.52933C10.6326 2.57205 9.90814 1.76484 9.00642 1.20009C8.10469 0.635342 7.06219 0.335866 5.99822 0.335938ZM1.66488 6.0026C1.66488 4.85333 2.12143 3.75113 2.93409 2.93847C3.74674 2.12582 4.84894 1.66927 5.99822 1.66927C7.14749 1.66927 8.24969 2.12582 9.06235 2.93847C9.875 3.75113 10.3315 4.85333 10.3315 6.0026C10.3315 7.15188 9.875 8.25408 9.06235 9.06673C8.24969 9.87939 7.14749 10.3359 5.99822 10.3359C4.84894 10.3359 3.74674 9.87939 2.93409 9.06673C2.12143 8.25408 1.66488 7.15188 1.66488 6.0026Z" fill="white"/>
</svg>
