<svg width="17" height="16" viewBox="0 0 17 16" fill="none" xmlns="http://www.w3.org/2000/svg">
<path fill-rule="evenodd" clip-rule="evenodd" d="M2.14084 1.50713C2.24035 1.42068 2.36326 1.36568 2.49402 1.34907C2.62479 1.33245 2.75754 1.35498 2.87551 1.41379L14.8755 7.41379C14.9864 7.46909 15.0798 7.55421 15.145 7.65961C15.2102 7.76501 15.2448 7.88651 15.2448 8.01046C15.2448 8.13441 15.2102 8.25591 15.145 8.36131C15.0798 8.46671 14.9864 8.55184 14.8755 8.60713L2.87551 14.6071C2.75755 14.6662 2.62473 14.6889 2.49387 14.6724C2.363 14.6559 2.23997 14.601 2.14034 14.5145C2.0407 14.4281 1.96894 14.314 1.93414 14.1868C1.89934 14.0596 1.90307 13.9249 1.94484 13.7998L3.65284 8.67713H7.24417C7.42098 8.67713 7.59055 8.60689 7.71558 8.48187C7.8406 8.35684 7.91084 8.18727 7.91084 8.01046C7.91084 7.83365 7.8406 7.66408 7.71558 7.53906C7.59055 7.41403 7.42098 7.34379 7.24417 7.34379H3.65284L1.94417 2.22113C1.90261 2.09607 1.89905 1.9615 1.93394 1.83442C1.96882 1.70733 2.04126 1.59344 2.14084 1.50713Z" fill="#7C798A"/>
</svg>
