<svg width="30" height="25" viewBox="0 0 30 25" fill="none" xmlns="http://www.w3.org/2000/svg">
<path d="M29.25 17H28.5V11.9328C28.5 11.3375 28.2609 10.7656 27.8391 10.3438L23.1562 5.66094C22.7344 5.23906 22.1625 5 21.5672 5H19.5V2.75C19.5 1.50781 18.4922 0.5 17.25 0.5H5.25C4.00781 0.5 3 1.50781 3 2.75V5H0.375C0.16875 5 0 5.16875 0 5.375V6.125C0 6.33125 0.16875 6.5 0.375 6.5H13.125C13.3313 6.5 13.5 6.66875 13.5 6.875V7.625C13.5 7.83125 13.3313 8 13.125 8H1.875C1.66875 8 1.5 8.16875 1.5 8.375V9.125C1.5 9.33125 1.66875 9.5 1.875 9.5H11.625C11.8313 9.5 12 9.66875 12 9.875V10.625C12 10.8313 11.8313 11 11.625 11H0.375C0.16875 11 0 11.1687 0 11.375V12.125C0 12.3313 0.16875 12.5 0.375 12.5H10.125C10.3313 12.5 10.5 12.6687 10.5 12.875V13.625C10.5 13.8313 10.3313 14 10.125 14H3V20C3 22.4844 5.01562 24.5 7.5 24.5C9.98438 24.5 12 22.4844 12 20H18C18 22.4844 20.0156 24.5 22.5 24.5C24.9844 24.5 27 22.4844 27 20H29.25C29.6625 20 30 19.6625 30 19.25V17.75C30 17.3375 29.6625 17 29.25 17ZM7.5 22.25C6.25781 22.25 5.25 21.2422 5.25 20C5.25 18.7578 6.25781 17.75 7.5 17.75C8.74219 17.75 9.75 18.7578 9.75 20C9.75 21.2422 8.74219 22.25 7.5 22.25ZM22.5 22.25C21.2578 22.25 20.25 21.2422 20.25 20C20.25 18.7578 21.2578 17.75 22.5 17.75C23.7422 17.75 24.75 18.7578 24.75 20C24.75 21.2422 23.7422 22.25 22.5 22.25ZM26.25 12.5H19.5V7.25H21.5672L26.25 11.9328V12.5Z" fill="white"/>
</svg>
