<svg width="20" height="20" viewBox="0 0 20 20" fill="none" xmlns="http://www.w3.org/2000/svg">
<path d="M1.77802 1.655C1.59702 2.015 1.50802 2.461 1.33002 3.351L0.732023 6.341C0.647272 6.74867 0.646616 7.16936 0.730094 7.5773C0.813572 7.98523 0.979429 8.37184 1.21751 8.71345C1.45559 9.05506 1.76089 9.34449 2.11471 9.56402C2.46853 9.78354 2.86344 9.92854 3.27525 9.99015C3.68706 10.0518 4.1071 10.0287 4.50968 9.92229C4.91225 9.81592 5.28888 9.6285 5.61651 9.37152C5.94414 9.11453 6.21588 8.79339 6.41508 8.42774C6.61428 8.06209 6.73676 7.65963 6.77502 7.245L6.84502 6.555C6.80713 6.99384 6.86119 7.43576 7.00375 7.85252C7.14631 8.26928 7.37425 8.65172 7.67298 8.97541C7.97172 9.29909 8.33469 9.5569 8.73871 9.73236C9.14272 9.90782 9.5789 9.99708 10.0194 9.99443C10.4598 9.99177 10.8949 9.89727 11.2968 9.71695C11.6986 9.53663 12.0585 9.27447 12.3533 8.94721C12.6481 8.61995 12.8714 8.23479 13.0089 7.81634C13.1465 7.39789 13.1952 6.95535 13.152 6.517L13.225 7.245C13.2633 7.65963 13.3858 8.06209 13.585 8.42774C13.7842 8.79339 14.0559 9.11453 14.3835 9.37152C14.7112 9.6285 15.0878 9.81592 15.4904 9.92229C15.8929 10.0287 16.313 10.0518 16.7248 9.99015C17.1366 9.92854 17.5315 9.78354 17.8853 9.56402C18.2392 9.34449 18.5445 9.05506 18.7825 8.71345C19.0206 8.37184 19.1865 7.98523 19.27 7.5773C19.3534 7.16936 19.3528 6.74867 19.268 6.341L18.67 3.351C18.492 2.461 18.403 2.016 18.222 1.655C18.0334 1.27904 17.7679 0.946936 17.4426 0.680251C17.1174 0.413565 16.7397 0.218256 16.334 0.107C15.944 1.11759e-07 15.49 0 14.582 0H5.41802C4.51002 0 4.05602 1.11759e-07 3.66602 0.107C3.26039 0.218256 2.88269 0.413565 2.55743 0.680251C2.23217 0.946936 1.96662 1.27904 1.77802 1.655ZM16.269 11.5C17.0504 11.502 17.8189 11.3018 18.5 10.919V12C18.5 15.771 18.5 17.657 17.328 18.828C16.385 19.772 14.98 19.955 12.5 19.991V16.5C12.5 15.565 12.5 15.098 12.299 14.75C12.1674 14.522 11.978 14.3326 11.75 14.201C11.402 14 10.935 14 10 14C9.06502 14 8.59802 14 8.25002 14.201C8.02201 14.3326 7.83267 14.522 7.70102 14.75C7.50002 15.098 7.50002 15.565 7.50002 16.5V19.991C5.02002 19.955 3.61502 19.771 2.67202 18.828C1.50002 17.657 1.50002 15.771 1.50002 12V10.919C2.18144 11.302 2.95036 11.5021 3.73202 11.5C4.88766 11.5007 6.00028 11.0617 6.84402 10.272C7.70374 11.0643 8.83088 11.5029 10 11.5C11.1692 11.5029 12.2963 11.0643 13.156 10.272C13.9998 11.0617 15.1134 11.5007 16.269 11.5Z" fill="white"/>
</svg>
