<svg width="20" height="20" viewBox="0 0 20 20" fill="none" xmlns="http://www.w3.org/2000/svg">
<path d="M3 7C3 5.14348 3.7375 3.36301 5.05025 2.05025C6.36301 0.737498 8.14348 0 10 0C11.8565 0 13.637 0.737498 14.9497 2.05025C16.2625 3.36301 17 5.14348 17 7V8.035C18.696 8.278 20 9.737 20 11.5V11.75C20 13.525 18.469 15.081 16.668 14.998C15.928 17.118 14.046 18.547 12.015 18.909C11.545 19.081 10.989 19 10.5 19C10.1022 19 9.72064 18.842 9.43934 18.5607C9.15804 18.2794 9 17.8978 9 17.5C9 17.1022 9.15804 16.7206 9.43934 16.4393C9.72064 16.158 10.1022 16 10.5 16C11.293 16 12.171 15.885 12.707 16.609C14.003 15.992 15 14.689 15 13V7C15 5.67392 14.4732 4.40215 13.5355 3.46447C12.5979 2.52678 11.3261 2 10 2C8.67392 2 7.40215 2.52678 6.46447 3.46447C5.52678 4.40215 5 5.67392 5 7V13.25C5 13.7141 4.81563 14.1592 4.48744 14.4874C4.15925 14.8156 3.71413 15 3.25 15C2.38805 15 1.5614 14.6576 0.951903 14.0481C0.34241 13.4386 1.15409e-07 12.612 1.15409e-07 11.75V11.5C-0.000215951 10.6582 0.302959 9.84455 0.853955 9.20815C1.40495 8.57175 2.16685 8.15525 3 8.035V7Z" fill="white"/>
</svg>
