<svg width="24" height="24" viewBox="0 0 24 24" fill="none" xmlns="http://www.w3.org/2000/svg">
<path d="M17.5133 4.29C16.716 3.37945 16.2765 2.2103 16.2767 1H12.6717V15.4667C12.6444 16.2497 12.3141 16.9916 11.7504 17.5357C11.1866 18.0799 10.4335 18.3838 9.65 18.3833C7.99333 18.3833 6.61667 17.03 6.61667 15.35C6.61667 13.3433 8.55333 11.8383 10.5483 12.4567V8.77C6.52333 8.23333 3 11.36 3 15.35C3 19.235 6.22 22 9.63833 22C13.3017 22 16.2767 19.025 16.2767 15.35V8.01167C17.7385 9.06149 19.4936 9.62475 21.2933 9.62167V6.01667C21.2933 6.01667 19.1 6.12167 17.5133 4.29Z" fill="white"/>
</svg>
