<svg width="21" height="21" viewBox="0 0 21 21" fill="none" xmlns="http://www.w3.org/2000/svg">
<g clip-path="url(#clip0_805_5312)">
<path d="M10.5026 0H10.4974C4.70795 0 1.37772e-05 4.70925 1.37772e-05 10.5C-0.00358129 12.7116 0.696491 14.8669 1.99895 16.6543L0.690389 20.5551L4.72633 19.2649C6.43831 20.4007 8.44815 21.0044 10.5026 21C16.2921 21 21 16.2894 21 10.5C21 4.71056 16.2921 0 10.5026 0ZM16.6123 14.8273C16.359 15.5426 15.3536 16.1359 14.5517 16.3091C14.0031 16.4259 13.2864 16.5191 10.8741 15.519C7.78839 14.2406 5.80126 11.1051 5.64639 10.9016C5.49808 10.6982 4.39951 9.24131 4.39951 7.73456C4.39951 6.22781 5.1647 5.49412 5.47314 5.17912C5.72645 4.92056 6.14514 4.80244 6.54676 4.80244C6.6767 4.80244 6.79351 4.809 6.89851 4.81425C7.20695 4.82737 7.36183 4.84575 7.56526 5.33269C7.81858 5.943 8.43545 7.44975 8.50895 7.60462C8.58376 7.7595 8.65858 7.9695 8.55358 8.17294C8.45514 8.38294 8.36851 8.47612 8.21364 8.65462C8.05876 8.83312 7.91176 8.96962 7.75689 9.16125C7.61514 9.32794 7.45501 9.50644 7.63351 9.81487C7.81201 10.1167 8.42889 11.1234 9.33714 11.9319C10.5092 12.9754 11.4594 13.3087 11.7994 13.4505C12.0527 13.5555 12.3546 13.5306 12.5396 13.3337C12.7746 13.0804 13.0646 12.6604 13.3599 12.2469C13.5699 11.9503 13.8351 11.9136 14.1133 12.0186C14.3968 12.117 15.897 12.8586 16.2054 13.0121C16.5139 13.167 16.7173 13.2405 16.7921 13.3704C16.8656 13.5004 16.8656 14.1107 16.6123 14.8273Z" fill="white"/>
</g>
<defs>
<clipPath id="clip0_805_5312">
<rect width="21" height="21" fill="white"/>
</clipPath>
</defs>
</svg>
